<svg xmlns="http://www.w3.org/2000/svg" width="11" height="9.776" viewBox="0 0 11 9.776">
  <path id="awesome-edit" d="M7.689,1.594,9.411,3.317a.187.187,0,0,1,0,.264L5.24,7.751l-1.772.2a.371.371,0,0,1-.411-.411l.2-1.772L7.425,1.594A.187.187,0,0,1,7.689,1.594Zm3.094-.437L9.85.225A.747.747,0,0,0,8.8.225L8.12.9a.187.187,0,0,0,0,.264L9.843,2.887a.187.187,0,0,0,.264,0l.676-.676a.747.747,0,0,0,0-1.054ZM7.333,6.617V8.561H1.222V2.45H5.611a.235.235,0,0,0,.162-.067l.764-.764a.229.229,0,0,0-.162-.391H.917A.917.917,0,0,0,0,2.144V8.866a.917.917,0,0,0,.917.917H7.639a.917.917,0,0,0,.917-.917V5.853a.23.23,0,0,0-.391-.162L7.4,6.454A.235.235,0,0,0,7.333,6.617Z" transform="translate(0 -0.007)"/>
</svg>
