<svg xmlns="http://www.w3.org/2000/svg" width="10.961" height="9.743" viewBox="0 0 10.961 9.743">
  <path id="awesome-external-link-alt" d="M10.961.457V2.892a.457.457,0,0,1-.78.323L9.5,2.536,4.868,7.17a.457.457,0,0,1-.646,0l-.431-.431a.457.457,0,0,1,0-.646L8.425,1.459,7.746.78A.457.457,0,0,1,8.069,0H10.5A.457.457,0,0,1,10.961.457Zm-3.215,4.7-.3.3a.457.457,0,0,0-.134.323V8.525H1.218V2.436H6.242A.457.457,0,0,0,6.564,2.3l.3-.3a.457.457,0,0,0-.323-.78H.913A.913.913,0,0,0,0,2.131v6.7a.913.913,0,0,0,.913.913h6.7a.913.913,0,0,0,.913-.913V5.476A.457.457,0,0,0,7.745,5.153Z" fill="#ccc"/>
</svg>
