<svg xmlns="http://www.w3.org/2000/svg" width="15.754" height="15.75" viewBox="0 0 15.754 15.75">
  <path id="beer" d="M15.75,6.047h-.562V5.836A1.952,1.952,0,0,0,15.75,4.5a2.249,2.249,0,0,0-3.741-1.684,2.535,2.535,0,0,0-3.083-.084,2,2,0,0,0-2.805.2A2.251,2.251,0,0,0,2.813,5.987V7.91A1.688,1.688,0,0,0,4.5,9.6v6.135A2.271,2.271,0,0,0,6.757,18h6.18a2.27,2.27,0,0,0,2.254-2.268V14.2h.563c1.758,0,2.25-1.15,2.25-2.391V8.438A2.136,2.136,0,0,0,15.75,6.047ZM13.5,7.875H6.188V5.987c.011-.014.025-.028.035-.042.042-.053.084-.105.123-.162a1.742,1.742,0,0,0,.162.12,2,2,0,0,0,1.114.341,2.04,2.04,0,0,0,.643-.105,2.533,2.533,0,0,0,4.075.292,2.476,2.476,0,0,0,.461-.805h.7v2.25Zm-9-2.246V8.265A.56.56,0,0,1,3.938,7.7V5.477A1.1,1.1,0,0,1,3.4,4.739,1.03,1.03,0,0,1,3.375,4.5,1.128,1.128,0,0,1,4.5,3.379a1.527,1.527,0,0,1,1.058.541.976.976,0,0,0,1.192,0,1.278,1.278,0,0,1,.872-.541.873.873,0,0,1,.559.2.836.836,0,0,1,.172.2c.039.063.07.148.109.2a.49.49,0,0,0,.394.193A.508.508,0,0,0,9.243,4,.686.686,0,0,0,9.3,3.92a1.515,1.515,0,0,1,.236-.239,1.405,1.405,0,0,1,1.835.081.859.859,0,0,0,.464.179,1.077,1.077,0,0,0,.288,0,.93.93,0,0,0,.577-.232,1.124,1.124,0,0,1,1.92.795.891.891,0,0,1-.042.32.559.559,0,0,0-.513-.323H12.132a.275.275,0,0,0-.306.288,1.393,1.393,0,0,1-.274.833A1.411,1.411,0,0,1,9.19,5.488a1.354,1.354,0,0,1-.13-.3c0-.021-.011-.039-.014-.056a.524.524,0,0,0-.854-.218l0,0a.843.843,0,0,1-.3.165.856.856,0,0,1-.271.042.93.93,0,0,1-.661-.3.968.968,0,0,0-1.044-.193c-.211.046-.429.411-.429.411a1.15,1.15,0,0,1-.137.2A1.176,1.176,0,0,1,4.5,5.629Zm11.813,6.184c0,.622-.221.844-.844.844h-.281V7.594h.281c.622,0,.844.221.844.844Z" transform="translate(-2.25 -2.25)" fill="#707070"/>
</svg>
