<svg xmlns="http://www.w3.org/2000/svg" width="8.351" height="14.767" viewBox="0 0 8.351 14.767">
  <path id="body-header-menu-icon2" d="M13.976,10.981C12.113,10.5,11.515,10,11.515,9.217c0-.894.829-1.518,2.215-1.518,1.46,0,2,.7,2.051,1.723h1.813A3.27,3.27,0,0,0,14.96,6.3V4.5H12.5V6.272c-1.592.345-2.871,1.378-2.871,2.962,0,1.9,1.567,2.838,3.856,3.388,2.051.492,2.461,1.214,2.461,1.977,0,.566-.4,1.468-2.215,1.468-1.69,0-2.354-.755-2.445-1.723H9.48A3.437,3.437,0,0,0,12.5,17.486v1.78H14.96V17.5c1.6-.3,2.871-1.231,2.871-2.912C17.831,12.261,15.838,11.465,13.976,10.981Z" transform="translate(-9.48 -4.5)" fill="#707070"/>
</svg>
