<svg xmlns="http://www.w3.org/2000/svg" width="12.383" height="13.166" viewBox="0 0 12.383 13.166">
  <path id="body-header-menu-icon5" d="M0,10.422v1.1c0,.908,2.08,1.646,4.644,1.646s4.644-.738,4.644-1.646v-1.1a8.373,8.373,0,0,1-4.644,1.1A8.373,8.373,0,0,1,0,10.422ZM7.74,3.292c2.564,0,4.644-.738,4.644-1.646S10.3,0,7.74,0,3.1.738,3.1,1.646,5.176,3.292,7.74,3.292ZM0,7.725V9.052C0,9.959,2.08,10.7,4.644,10.7s4.644-.738,4.644-1.646V7.725A7.449,7.449,0,0,1,4.644,9.052,7.449,7.449,0,0,1,0,7.725Zm10.061.283c1.386-.285,2.322-.815,2.322-1.425v-1.1a5.722,5.722,0,0,1-2.322.887ZM4.644,4.114C2.08,4.114,0,5.035,0,6.172S2.08,8.229,4.644,8.229s4.644-.921,4.644-2.057S7.207,4.114,4.644,4.114Zm5.3,1.448c1.451-.278,2.436-.823,2.436-1.448v-1.1A7.518,7.518,0,0,1,8.5,4.091,2.793,2.793,0,0,1,9.948,5.562Z" fill="#707070"/>
</svg>
