<svg xmlns="http://www.w3.org/2000/svg" width="15.388" height="14.483" viewBox="0 0 15.388 14.483">
  <path id="body-header-menu-icon3" d="M7.287,4.082l1.414.4a.238.238,0,0,1-.065.467H7.708a.728.728,0,0,1-.291-.062.351.351,0,0,0-.4.057l-.5.5a.339.339,0,0,0,.042.52,2.067,2.067,0,0,0,.9.325v.5a.454.454,0,0,0,.453.453H8.37a.454.454,0,0,0,.453-.453v-.5a1.591,1.591,0,0,0,1.395-1.782A1.66,1.66,0,0,0,9,3.16l-1.414-.4a.238.238,0,0,1,.065-.467h.928a.728.728,0,0,1,.291.062.351.351,0,0,0,.4-.057l.5-.5a.339.339,0,0,0-.042-.52,2.067,2.067,0,0,0-.9-.325v-.5A.454.454,0,0,0,8.373,0H7.92a.454.454,0,0,0-.453.453v.5A1.591,1.591,0,0,0,6.073,2.732,1.66,1.66,0,0,0,7.287,4.082Zm7.816,5.2a.849.849,0,0,0-1.14,0L11.5,11.371a1.645,1.645,0,0,1-1.069.4H7.267a.453.453,0,0,1,0-.905h2.09A.906.906,0,0,0,9.4,9.052H5.128A3.024,3.024,0,0,0,3.151,9.8L1.909,10.862H.427A.442.442,0,0,0,0,11.315V14.03a.442.442,0,0,0,.427.453h9.53a1.656,1.656,0,0,0,1.069-.4l4.039-3.423A.94.94,0,0,0,15.1,9.281Z" fill="#707070"/>
</svg>
