<svg xmlns="http://www.w3.org/2000/svg" width="10.181" height="13.396" viewBox="0 0 10.181 13.396">
  <g id="body-header-menu-icon7" transform="translate(-7.313 -3.938)">
    <path id="Path_784" data-name="Path 784" d="M21.238,7.257h3.048a.166.166,0,0,0,.167-.167h0a.991.991,0,0,0-.358-.767l-2.555-2.13a1.076,1.076,0,0,0-.69-.248h0a.247.247,0,0,0-.248.248V6.62A.636.636,0,0,0,21.238,7.257Z" transform="translate(-6.959 -0.004)" fill="#707070"/>
    <path id="Path_785" data-name="Path 785" d="M12.772,6.617V3.937H8.384A1.075,1.075,0,0,0,7.312,5.009V16.262a1.075,1.075,0,0,0,1.072,1.072h8.038a1.075,1.075,0,0,0,1.072-1.072V8.124H14.279A1.509,1.509,0,0,1,12.772,6.617Z" transform="translate(0 0)" fill="#707070"/>
  </g>
</svg>
