<svg xmlns="http://www.w3.org/2000/svg" width="15.6" height="12" viewBox="0 0 15.6 12">
  <g id="body-header-menu-icon4" transform="translate(-3.375 -6.75)">
    <path id="Path_772" data-name="Path 772" d="M6.135,17.7H4.605a.15.15,0,0,1-.15-.15V7.95a.15.15,0,0,1,.15-.15H6.124a.552.552,0,0,0,.551-.525A.493.493,0,0,0,6.521,6.9a.67.67,0,0,0-.446-.15H4.05a.613.613,0,0,0-.675.6v10.8a.581.581,0,0,0,.637.6H6.124a.505.505,0,0,0,.4-.866A.556.556,0,0,0,6.135,17.7Z" fill="#707070"/>
    <path id="Path_773" data-name="Path 773" d="M29.1,6.75H26.989a.526.526,0,0,0-.525.686.406.406,0,0,0,.03.071.531.531,0,0,0,.484.292h1.53a.15.15,0,0,1,.15.15v9.6a.15.15,0,0,1-.15.15H26.989a.547.547,0,0,0-.551.521.525.525,0,0,0,.154.39.517.517,0,0,0,.386.142H29.1a.585.585,0,0,0,.638-.615V7.35A.581.581,0,0,0,29.1,6.75Z" transform="translate(-10.762)" fill="#707070"/>
    <path id="Path_774" data-name="Path 774" d="M8.154,12.375a.526.526,0,0,0-.525.521V17.85a.525.525,0,0,0,1.05,0V12.9A.526.526,0,0,0,8.154,12.375Z" transform="translate(-1.985 -2.625)" fill="#707070"/>
    <path id="Path_775" data-name="Path 775" d="M26.927,18.375a.526.526,0,0,0,.525-.521V12.9a.525.525,0,0,0-1.05,0V17.85A.527.527,0,0,0,26.927,18.375Z" transform="translate(-10.746 -2.625)" fill="#707070"/>
    <path id="Path_776" data-name="Path 776" d="M22.5,10.125a.535.535,0,0,0-.525.54v7.316a.525.525,0,1,0,1.05,0V10.665A.535.535,0,0,0,22.5,10.125Z" transform="translate(-8.679 -1.575)" fill="#707070"/>
    <path id="Path_777" data-name="Path 777" d="M12.584,10.125a.535.535,0,0,0-.525.54v7.316a.525.525,0,1,0,1.05,0V10.665A.532.532,0,0,0,12.584,10.125Z" transform="translate(-4.052 -1.575)" fill="#707070"/>
    <path id="Path_778" data-name="Path 778" d="M17.541,11.25a.531.531,0,0,0-.525.533v6.131a.525.525,0,1,0,1.05,0V11.783A.531.531,0,0,0,17.541,11.25Z" transform="translate(-6.366 -2.1)" fill="#707070"/>
  </g>
</svg>
