<svg xmlns="http://www.w3.org/2000/svg" width="12.716" height="12.716" viewBox="0 0 12.716 12.716">
  <path id="icons8-teilen-2" d="M15.374,5a2.339,2.339,0,0,0-1.812,3.822l-1.61,2.034H9.629a2.342,2.342,0,1,0,0,1h2.322l1.61,2.034a2.366,2.366,0,1,0,.788-.622l-1.514-1.914L14.35,9.444a2.315,2.315,0,0,0,1.024.241,2.342,2.342,0,1,0,0-4.685Zm0,1a1.339,1.339,0,1,1-1.339,1.339A1.331,1.331,0,0,1,15.374,6ZM7.342,10.02A1.339,1.339,0,1,1,6,11.358,1.331,1.331,0,0,1,7.342,10.02Zm8.031,4.016a1.339,1.339,0,1,1-1.339,1.339A1.331,1.331,0,0,1,15.374,14.035Z" transform="translate(-5 -5)" fill="#fff"/>
</svg>
