<svg xmlns="http://www.w3.org/2000/svg" width="17.5" height="14" viewBox="0 0 17.5 14">
  <path id="call-not" d="M7.335,10.428,5.979,8.771a.656.656,0,0,0-.766-.189L2.15,9.9a.656.656,0,0,0-.38.752l.656,2.844a.656.656,0,0,0,.64.509,12.611,12.611,0,0,0,7.375-2.376L8.254,9.933c-.3.178-.6.347-.919.495Zm10,2.1L12.992,9.173a12.592,12.592,0,0,0,2.759-7.861.655.655,0,0,0-.509-.64L12.4.016a.66.66,0,0,0-.752.38L10.334,3.458a.655.655,0,0,0,.189.766L12.18,5.58a9.816,9.816,0,0,1-1.258,1.991L1.245.093A.439.439,0,0,0,.63.169L.094.858a.436.436,0,0,0,.077.612L16.26,13.9a.439.439,0,0,0,.615-.077l.536-.692a.433.433,0,0,0-.079-.61Z" transform="translate(-0.002 0.001)" fill="#fff"/>
</svg>
