<svg xmlns="http://www.w3.org/2000/svg" width="11.883" height="11.883" viewBox="0 0 11.883 11.883">
  <g id="chat-white" transform="translate(-3.375 -3.375)">
    <path id="Path_766" data-name="Path 766" d="M17.167,11.162a.692.692,0,0,1,.094-.349.962.962,0,0,1,.06-.089,4.629,4.629,0,0,0,.788-2.579,4.859,4.859,0,0,0-4.962-4.77,4.928,4.928,0,0,0-4.865,3.8,4.591,4.591,0,0,0-.106.977,4.846,4.846,0,0,0,4.885,4.83,5.883,5.883,0,0,0,1.348-.22c.323-.089.643-.206.726-.237a.755.755,0,0,1,.266-.049.743.743,0,0,1,.289.057l1.62.574a.386.386,0,0,0,.111.029.227.227,0,0,0,.229-.229.367.367,0,0,0-.014-.077Z" transform="translate(-2.851)" fill="#fff"/>
    <path id="Path_767" data-name="Path 767" d="M11.1,18.873c-.1.029-.234.06-.377.091a5.272,5.272,0,0,1-.971.129,4.846,4.846,0,0,1-4.885-4.83,5.4,5.4,0,0,1,.043-.611c.017-.123.037-.246.066-.366s.063-.257.1-.383l-.229.2a4.251,4.251,0,0,0-1.474,3.2,4.2,4.2,0,0,0,.708,2.342c.066.1.1.177.091.229s-.34,1.771-.34,1.771a.229.229,0,0,0,.077.22.233.233,0,0,0,.146.051.2.2,0,0,0,.083-.017l1.6-.631a.446.446,0,0,1,.343.006,4.808,4.808,0,0,0,1.734.343,4.486,4.486,0,0,0,3.431-1.574s.091-.126.2-.274C11.342,18.8,11.222,18.841,11.1,18.873Z" transform="translate(0 -5.657)" fill="#fff"/>
  </g>
</svg>
