<svg xmlns="http://www.w3.org/2000/svg" xmlns:xlink="http://www.w3.org/1999/xlink" width="60.07" height="35.577" viewBox="0 0 60.07 35.577">
  <defs>
    <linearGradient id="linear-gradient" x1="0.207" y1="1.162" x2="0.786" y2="0.184" gradientUnits="objectBoundingBox">
      <stop offset="0" stop-color="#0070b9"/>
      <stop offset="1" stop-color="#00a3e7"/>
    </linearGradient>
  </defs>
  <g id="Group_2" data-name="Group 2" transform="translate(-683.085 -415.911)">
    <path id="Path_1" data-name="Path 1" d="M732.739,450.573a9.48,9.48,0,0,0,7.141-3.278,12.149,12.149,0,0,0,0-15.841,9.7,9.7,0,0,0-5.07-3.047A15.814,15.814,0,0,0,721.166,420a14.667,14.667,0,0,0-1.849.122A10.272,10.272,0,0,0,710.624,415,10.563,10.563,0,0,0,701,421.983c-.127-.007-.252-.022-.381-.022a7.352,7.352,0,0,0-6.577,4.487c-.161-.008-.321-.028-.484-.028-5.971,0-10.811,5.408-10.811,12.078s4.84,12.078,10.811,12.078" transform="translate(0.338 0.911)" fill="url(#linear-gradient)"/>
    <g id="Group_1" data-name="Group 1" transform="translate(702.685 435.605)">
      <path id="Path_2" data-name="Path 2" d="M717.672,448.972c-5.19,0-9.518-3.128-10.405-7.236a1.3,1.3,0,0,1,1.275-1.557h0A1.289,1.289,0,0,1,709.8,441.2c.627,2.934,3.917,5.179,7.869,5.179s7.241-2.245,7.869-5.179a1.29,1.29,0,0,1,1.262-1.019h0a1.3,1.3,0,0,1,1.275,1.557C727.191,445.844,722.862,448.972,717.672,448.972Z" transform="translate(-707.237 -440.179)" fill="#fff"/>
    </g>
    <rect id="Rectangle_3" data-name="Rectangle 3" width="2.763" height="6.57" rx="1.381" transform="translate(715.718 427.13)" fill="#fff"/>
    <rect id="Rectangle_4" data-name="Rectangle 4" width="2.763" height="6.57" rx="1.381" transform="translate(707.247 427.13)" fill="#fff"/>
    <path id="Path_3" data-name="Path 3" d="M695.931,454.919" transform="translate(-2.421 -7.352)" fill="#fff"/>
  </g>
</svg>
