<svg xmlns="http://www.w3.org/2000/svg" width="13.525" height="13.525" viewBox="0 0 13.525 13.525">
  <g id="cog" transform="translate(-1 -1)">
    <path id="Path_779" data-name="Path 779" d="M16.916,15.208A1.708,1.708,0,1,1,15.208,13.5,1.708,1.708,0,0,1,16.916,15.208Z" transform="translate(-7.445 -7.445)" fill="none" stroke="#000" stroke-linecap="round" stroke-linejoin="round" stroke-width="1"/>
    <path id="Path_780" data-name="Path 780" d="M11.975,9.47a.939.939,0,0,0,.188,1.036l.034.034a1.139,1.139,0,1,1-1.611,1.611l-.034-.034a.947.947,0,0,0-1.605.672v.1a1.139,1.139,0,1,1-2.277,0v-.051a.986.986,0,0,0-1.651-.672l-.034.034a1.139,1.139,0,1,1-1.611-1.611l.034-.034a.947.947,0,0,0-.672-1.605h-.1a1.139,1.139,0,1,1,0-2.277H2.69a.986.986,0,0,0,.672-1.651l-.034-.034A1.139,1.139,0,1,1,4.939,3.373l.034.034A.939.939,0,0,0,6.009,3.6h.046a.939.939,0,0,0,.569-.86v-.1a1.139,1.139,0,1,1,2.277,0V2.69a.947.947,0,0,0,1.605.672l.034-.034a1.139,1.139,0,1,1,1.611,1.611l-.034.034a.939.939,0,0,0-.188,1.036v.046a.939.939,0,0,0,.86.569h.1a1.139,1.139,0,1,1,0,2.277h-.051a.939.939,0,0,0-.86.569Z" fill="none" stroke="#000" stroke-linecap="round" stroke-linejoin="round" stroke-width="1"/>
  </g>
</svg>
