<svg xmlns="http://www.w3.org/2000/svg" width="13.412" height="11.517" viewBox="0 0 13.412 11.517">
  <path id="coins-black" d="M0,9.117v.96c0,.794,2.253,1.44,5.029,1.44s5.029-.646,5.029-1.44v-.96a10.821,10.821,0,0,1-5.029.96A10.821,10.821,0,0,1,0,9.117ZM8.382,2.879c2.777,0,5.029-.646,5.029-1.44S11.159,0,8.382,0,3.353.646,3.353,1.44,5.606,2.879,8.382,2.879ZM0,6.757V7.918c0,.794,2.253,1.44,5.029,1.44s5.029-.646,5.029-1.44V6.757A9.49,9.49,0,0,1,5.029,7.918,9.49,9.49,0,0,1,0,6.757ZM10.9,7c1.5-.25,2.515-.713,2.515-1.246V4.8a7.128,7.128,0,0,1-2.515.776ZM5.029,3.6C2.253,3.6,0,4.4,0,5.4S2.253,7.2,5.029,7.2s5.029-.805,5.029-1.8S7.806,3.6,5.029,3.6Zm5.744,1.266c1.572-.243,2.638-.72,2.638-1.266v-.96a9.629,9.629,0,0,1-4.209.94A2.779,2.779,0,0,1,10.774,4.865Z"/>
</svg>
