<svg xmlns="http://www.w3.org/2000/svg" width="13.708" height="13.708" viewBox="0 0 13.708 13.708">
  <g id="cube" transform="translate(-2.25 -2.25)">
    <path id="Path_781" data-name="Path 781" d="M25.1,11.82a.384.384,0,0,0-.156.031l-5.434,2.818h0a.771.771,0,0,0-.382.655v5.688a.369.369,0,0,0,.389.352.419.419,0,0,0,.187-.043.067.067,0,0,0,.015-.009l5.346-2.837.009,0a.777.777,0,0,0,.419-.676V12.171A.371.371,0,0,0,25.1,11.82Z" transform="translate(-9.531 -5.405)"/>
    <path id="Path_782" data-name="Path 782" d="M15.871,4.9l-5.56-2.5A1.756,1.756,0,0,0,9.8,2.25a1.726,1.726,0,0,0-.5.147L3.732,4.9s-.245.1-.245.291.254.352.254.352L9.418,8.532a.964.964,0,0,0,.774,0l5.673-3a.443.443,0,0,0,.229-.352C16.1,4.989,15.871,4.9,15.871,4.9Z" transform="translate(-0.699)"/>
    <path id="Path_783" data-name="Path 783" d="M8.232,14.664,2.795,11.843a.43.43,0,0,0-.156-.031.371.371,0,0,0-.389.352v5.624a.777.777,0,0,0,.419.676l.006,0L8.021,21.3a.4.4,0,0,0,.2.052A.373.373,0,0,0,8.611,21V15.319A.765.765,0,0,0,8.232,14.664Z" transform="translate(0 -5.401)"/>
  </g>
</svg>
