<svg xmlns="http://www.w3.org/2000/svg" width="8.408" height="8.408" viewBox="0 0 8.408 8.408">
  <path id="download-black" d="M3.547,0H4.861a.393.393,0,0,1,.394.394V3.153h1.44a.328.328,0,0,1,.232.56l-2.5,2.5a.318.318,0,0,1-.448,0l-2.5-2.5a.328.328,0,0,1,.232-.56H3.153V.394A.393.393,0,0,1,3.547,0ZM8.408,6.174V8.014a.393.393,0,0,1-.394.394H.394A.393.393,0,0,1,0,8.014V6.174A.393.393,0,0,1,.394,5.78H2.8l.8.8a.841.841,0,0,0,1.192,0l.8-.8H8.014A.393.393,0,0,1,8.408,6.174ZM6.371,7.619a.328.328,0,1,0-.328.328A.329.329,0,0,0,6.371,7.619Zm1.051,0a.328.328,0,1,0-.328.328A.329.329,0,0,0,7.422,7.619Z"/>
</svg>
