<svg xmlns="http://www.w3.org/2000/svg" xmlns:xlink="http://www.w3.org/1999/xlink" width="72.612" height="71.472" viewBox="0 0 72.612 71.472">
  <defs>
    <linearGradient id="linear-gradient" x1="0.5" y1="0.005" x2="0.5" y2="1.005" gradientUnits="objectBoundingBox">
      <stop offset="0" stop-color="#325290"/>
      <stop offset="1" stop-color="#214182"/>
    </linearGradient>
  </defs>
  <g id="Group_18" data-name="Group 18" transform="translate(-47.5 -25.708)">
    <rect id="Rectangle_28" data-name="Rectangle 28" width="71.793" height="70.654" rx="2.857" transform="translate(47.909 26.118)" fill="#fff"/>
    <g id="Group_17" data-name="Group 17" transform="translate(47.5 25.708)">
      <path id="Path_28" data-name="Path 28" d="M119.649,93.444V29.34a3.276,3.276,0,0,0-3.275-3.275H51.132a3.274,3.274,0,0,0-3.274,3.26V93.45a3.276,3.276,0,0,0,3.275,3.269H87.363V68.354H78.012V58.581h9.352V47.967c0-6.36,5.768-10.633,10.42-10.633h10.47v8.891h-4.83c-2.38,0-5.553,1.933-5.553,4.309v8.047H107.3v9.773H97.871V96.72h18.5A3.276,3.276,0,0,0,119.649,93.444Z" transform="translate(-47.448 -25.656)" fill="url(#linear-gradient)"/>
      <path id="Path_29" data-name="Path 29" d="M116.426,97.18H97.514V68h9.432V59.042H97.514V50.586c0-2.54,3.277-4.718,5.962-4.718H107.9V37.8H97.836c-4.182,0-10.01,3.89-10.01,10.224V59.042H78.473V68h9.353V97.18H51.184A3.689,3.689,0,0,1,47.5,93.5V29.377a3.691,3.691,0,0,1,3.683-3.669h65.242a3.691,3.691,0,0,1,3.685,3.684V93.5A3.691,3.691,0,0,1,116.426,97.18Zm-18.093-.818h18.093a2.869,2.869,0,0,0,2.866-2.866v-64.1a2.869,2.869,0,0,0-2.866-2.866H51.184a2.873,2.873,0,0,0-2.865,2.852V93.5a2.869,2.869,0,0,0,2.866,2.859H87.006V68.815H77.655V58.224h9.352v-10.2a11.375,11.375,0,0,1,10.83-11.043h10.879v9.711h-5.239c-2.267,0-5.142,1.835-5.142,3.9v7.638h9.43V68.815h-9.43Z" transform="translate(-47.5 -25.708)" fill="#253f78"/>
    </g>
  </g>
</svg>
