<svg xmlns="http://www.w3.org/2000/svg" width="25.993" height="25.996" viewBox="0 0 25.993 25.996">
  <path id="icons8-einstellungen" d="M13.419,2a.565.565,0,0,0-.557.474l-.55,3.365a9.48,9.48,0,0,0-1.885.775L7.65,4.63a.565.565,0,0,0-.727.06l-2.2,2.2a.565.565,0,0,0-.063.724l1.954,2.795a9.561,9.561,0,0,0-.79,1.9l-3.351.557A.565.565,0,0,0,2,13.418v3.108a.565.565,0,0,0,.466.557l3.353.594a9.505,9.505,0,0,0,.788,1.9L4.631,22.343a.565.565,0,0,0,.06.727l2.2,2.2a.565.565,0,0,0,.723.064l2.8-1.96a9.522,9.522,0,0,0,1.891.78l.56,3.37a.565.565,0,0,0,.557.472h3.108a.565.565,0,0,0,.557-.467l.6-3.383a9.523,9.523,0,0,0,1.882-.789l2.819,1.978a.565.565,0,0,0,.724-.063l2.2-2.2a.565.565,0,0,0,.058-.73l-2.01-2.79a9.476,9.476,0,0,0,.773-1.871l3.4-.6A.565.565,0,0,0,28,16.528V13.419a.565.565,0,0,0-.474-.557l-3.4-.555a9.542,9.542,0,0,0-.775-1.869l1.982-2.825a.565.565,0,0,0-.063-.724l-2.2-2.2a.565.565,0,0,0-.73-.058l-2.783,2a9.472,9.472,0,0,0-1.884-.785l-.592-3.382A.565.565,0,0,0,16.527,2ZM13.9,3.13h2.152l.563,3.213a.565.565,0,0,0,.419.451,8.363,8.363,0,0,1,2.311.961.565.565,0,0,0,.623-.024l2.645-1.9,1.522,1.522-1.883,2.683a.565.565,0,0,0-.022.616,8.435,8.435,0,0,1,.953,2.3.565.565,0,0,0,.457.421l3.225.528v2.152l-3.232.567a.565.565,0,0,0-.45.422,8.363,8.363,0,0,1-.95,2.3.565.565,0,0,0,.025.621l1.909,2.65-1.522,1.523-2.679-1.88a.565.565,0,0,0-.618-.02,8.417,8.417,0,0,1-2.306.966.565.565,0,0,0-.418.449l-.571,3.214H13.9l-.532-3.2a.565.565,0,0,0-.422-.456,8.422,8.422,0,0,1-2.32-.958.565.565,0,0,0-.615.022L7.352,24.136,5.829,22.61l1.879-2.626a.565.565,0,0,0,.023-.621,8.4,8.4,0,0,1-.967-2.326.565.565,0,0,0-.449-.419l-3.182-.565V13.9l3.18-.529a.565.565,0,0,0,.456-.421,8.45,8.45,0,0,1,.967-2.327A.565.565,0,0,0,7.715,10L5.858,7.351,7.383,5.828l2.635,1.883a.565.565,0,0,0,.619.024,8.38,8.38,0,0,1,2.319-.953.565.565,0,0,0,.423-.458ZM15,10.477A4.521,4.521,0,1,0,19.52,15,4.53,4.53,0,0,0,15,10.477Zm0,1.13A3.391,3.391,0,1,1,11.608,15,3.382,3.382,0,0,1,15,11.607Z" transform="translate(-2.002 -2)"/>
</svg>
