<svg xmlns="http://www.w3.org/2000/svg" width="14.212" height="14.212" viewBox="0 0 14.212 14.212">
  <path id="globe" d="M7.106.563a7.106,7.106,0,1,0,7.106,7.106A7.106,7.106,0,0,0,7.106.563ZM9.464,10.809l-.324.323a.685.685,0,0,0-.177.307c-.043.162-.078.326-.137.483l-.5,1.342a5.726,5.726,0,0,1-1.222.134v-.785a2.145,2.145,0,0,0-.648-1.468.917.917,0,0,1-.268-.648V9.581a.914.914,0,0,0-.472-.8c-.412-.228-1-.546-1.4-.748a4.131,4.131,0,0,1-.907-.623l-.023-.021a3.289,3.289,0,0,1-.517-.594C2.6,6.4,2.165,5.749,1.881,5.328a5.762,5.762,0,0,1,2.957-2.92l.688.344a.458.458,0,0,0,.664-.41V2.018a5.727,5.727,0,0,1,.7-.069L7.7,2.76a.458.458,0,0,1,0,.648l-.134.134-.3.3a.229.229,0,0,0,0,.324L7.4,4.3a.229.229,0,0,1,0,.324l-.229.229a.229.229,0,0,1-.162.067H6.754a.229.229,0,0,0-.16.065l-.284.277a.229.229,0,0,0-.045.267l.447.894a.229.229,0,0,1-.2.332H6.344a.229.229,0,0,1-.15-.056l-.266-.231a.459.459,0,0,0-.446-.089l-.893.3a.342.342,0,0,0-.045.631l.317.159a1.941,1.941,0,0,0,.868.205c.3,0,.647.782.917.917H8.561a.917.917,0,0,1,.648.268l.392.392a.874.874,0,0,1,.256.618,1.333,1.333,0,0,1-.393.945Zm2.485-2.618a.688.688,0,0,1-.405-.286l-.515-.773a.687.687,0,0,1,0-.763l.561-.842a.687.687,0,0,1,.265-.234l.372-.186A5.551,5.551,0,0,1,12.785,8.4Z" transform="translate(0 -0.563)" fill="#18364d"/>
</svg>
