<svg xmlns="http://www.w3.org/2000/svg" width="15.612" height="12.488" viewBox="0 0 15.612 12.488">
  <path id="hands-helping" d="M11.9,4.685H8.2V6.051a1.756,1.756,0,1,1-3.513,0V3.084L3.1,4.036a1.558,1.558,0,0,0-.759,1.337V6.526L.389,7.653A.779.779,0,0,0,.1,8.719L2.055,12.1a.781.781,0,0,0,1.066.285l2.522-1.456H8.976a1.563,1.563,0,0,0,1.561-1.561h.39a.78.78,0,0,0,.781-.781V7.026h.2a.584.584,0,0,0,.585-.585V5.27A.584.584,0,0,0,11.9,4.685Zm3.6-.912L13.554.391A.781.781,0,0,0,12.488.106L9.966,1.562H7.473a1.573,1.573,0,0,0-.827.237l-.817.51a.775.775,0,0,0-.366.661V6.051a.976.976,0,1,0,1.951,0V3.9H11.9A1.367,1.367,0,0,1,13.269,5.27v.7l1.951-1.127a.781.781,0,0,0,.285-1.066Z" transform="translate(0.002 -0.002)" fill="#707070"/>
</svg>
