<svg xmlns="http://www.w3.org/2000/svg" width="13.976" height="12.229" viewBox="0 0 13.976 12.229">
  <path id="list-down" d="M8.3,12.732H6.551a.437.437,0,0,0-.437.437v.874a.437.437,0,0,0,.437.437H8.3a.437.437,0,0,0,.437-.437v-.874A.437.437,0,0,0,8.3,12.732ZM4.8,10.985H3.494v-8.3a.437.437,0,0,0-.437-.437H2.184a.437.437,0,0,0-.437.437v8.3H.437a.437.437,0,0,0-.308.745l2.184,2.621a.437.437,0,0,0,.617,0l2.184-2.621A.437.437,0,0,0,4.8,10.985Zm6.988-5.241H6.551a.437.437,0,0,0-.437.437v.874a.437.437,0,0,0,.437.437h5.241a.437.437,0,0,0,.437-.437V6.181A.437.437,0,0,0,11.792,5.744ZM10.045,9.238H6.551a.437.437,0,0,0-.437.437v.874a.437.437,0,0,0,.437.437h3.494a.437.437,0,0,0,.437-.437V9.675A.437.437,0,0,0,10.045,9.238ZM13.539,2.25H6.551a.437.437,0,0,0-.437.437V3.56A.437.437,0,0,0,6.551,4h6.988a.437.437,0,0,0,.437-.437V2.687A.437.437,0,0,0,13.539,2.25Z" transform="translate(0 -2.25)"/>
</svg>
