<svg xmlns="http://www.w3.org/2000/svg" width="16.928" height="12.696" viewBox="0 0 16.928 12.696">
  <path id="mute" d="M7.11,4.733,4.168,7.674H.794A.793.793,0,0,0,0,8.468v4.761a.794.794,0,0,0,.794.794H4.168L7.11,16.963A.794.794,0,0,0,8.464,16.4V5.294A.794.794,0,0,0,7.11,4.733Zm8.154,6.115,1.509-1.509a.534.534,0,0,0,0-.755l-.755-.755a.534.534,0,0,0-.755,0L13.754,9.339,12.245,7.83a.534.534,0,0,0-.755,0l-.755.755a.534.534,0,0,0,0,.755l1.509,1.509-1.509,1.509a.534.534,0,0,0,0,.755l.755.755a.534.534,0,0,0,.755,0l1.509-1.509,1.509,1.509a.534.534,0,0,0,.755,0l.755-.755a.534.534,0,0,0,0-.755Z" transform="translate(0 -4.5)" fill="#fff"/>
</svg>
