<svg xmlns="http://www.w3.org/2000/svg" width="36" height="34" viewBox="0 0 36 34">
  <g id="nice-dot" transform="translate(-57 -50)">
    <g id="Ellipse_91" data-name="Ellipse 91" transform="translate(57 50)" fill="#747474" stroke="#fff" stroke-width="1">
      <circle cx="4" cy="4" r="4" stroke="none"/>
      <circle cx="4" cy="4" r="3.5" fill="none"/>
    </g>
    <g id="Ellipse_93" data-name="Ellipse 93" transform="translate(71 50)" fill="#747474" stroke="#fff" stroke-width="1">
      <circle cx="4" cy="4" r="4" stroke="none"/>
      <circle cx="4" cy="4" r="3.5" fill="none"/>
    </g>
    <g id="Ellipse_94" data-name="Ellipse 94" transform="translate(85 50)" fill="#747474" stroke="#fff" stroke-width="1">
      <circle cx="4" cy="4" r="4" stroke="none"/>
      <circle cx="4" cy="4" r="3.5" fill="none"/>
    </g>
    <g id="Ellipse_91-2" data-name="Ellipse 91" transform="translate(57 63)" fill="#747474" stroke="#fff" stroke-width="1">
      <circle cx="4" cy="4" r="4" stroke="none"/>
      <circle cx="4" cy="4" r="3.5" fill="none"/>
    </g>
    <g id="Ellipse_93-2" data-name="Ellipse 93" transform="translate(71 63)" fill="#747474" stroke="#fff" stroke-width="1">
      <circle cx="4" cy="4" r="4" stroke="none"/>
      <circle cx="4" cy="4" r="3.5" fill="none"/>
    </g>
    <g id="Ellipse_94-2" data-name="Ellipse 94" transform="translate(85 63)" fill="#747474" stroke="#fff" stroke-width="1">
      <circle cx="4" cy="4" r="4" stroke="none"/>
      <circle cx="4" cy="4" r="3.5" fill="none"/>
    </g>
    <g id="Ellipse_91-3" data-name="Ellipse 91" transform="translate(57 76)" fill="#747474" stroke="#fff" stroke-width="1">
      <circle cx="4" cy="4" r="4" stroke="none"/>
      <circle cx="4" cy="4" r="3.5" fill="none"/>
    </g>
    <g id="Ellipse_93-3" data-name="Ellipse 93" transform="translate(71 76)" fill="#747474" stroke="#fff" stroke-width="1">
      <circle cx="4" cy="4" r="4" stroke="none"/>
      <circle cx="4" cy="4" r="3.5" fill="none"/>
    </g>
    <g id="Ellipse_94-3" data-name="Ellipse 94" transform="translate(85 76)" fill="#747474" stroke="#fff" stroke-width="1">
      <circle cx="4" cy="4" r="4" stroke="none"/>
      <circle cx="4" cy="4" r="3.5" fill="none"/>
    </g>
  </g>
</svg>
