<svg xmlns="http://www.w3.org/2000/svg" width="10.857" height="9.651" viewBox="0 0 10.857 9.651">
  <path id="paper-pen-edit" d="M4.112,7.995a.209.209,0,0,0-.192-.123.206.206,0,0,0-.189.117l-.145.289a.3.3,0,0,1-.556-.039l-.317-.951-.2.6a.814.814,0,0,1-.773.557H1.508a.3.3,0,1,1,0-.6h.234a.211.211,0,0,0,.2-.144l.343-1.03a.453.453,0,0,1,.859,0l.262.785a.846.846,0,0,1,1.244.267.214.214,0,0,0,.176.118V6.289l2.413-2.4V3.016H4.674a.454.454,0,0,1-.452-.452V0H.452A.451.451,0,0,0,0,.452V9.2a.451.451,0,0,0,.452.452H6.786A.451.451,0,0,0,7.238,9.2V8.444l-2.413,0A.809.809,0,0,1,4.112,7.995ZM7.238,2.3a.451.451,0,0,0-.132-.319L5.261.132A.452.452,0,0,0,4.94,0H4.825V2.413H7.238ZM5.428,6.54v1.3h1.3L9.776,4.773,8.5,3.493,5.428,6.54Zm5.288-3.386-.6-.6a.48.48,0,0,0-.679,0l-.514.514L10.2,4.346l.514-.514A.48.48,0,0,0,10.716,3.154Z" fill="#707070"/>
</svg>
