<svg xmlns="http://www.w3.org/2000/svg" width="8.097" height="8.096" viewBox="0 0 8.097 8.096">
  <path id="phone-small" d="M12.353,10.842a6.8,6.8,0,0,0-1.421-.951c-.426-.2-.582-.2-.883.017-.251.181-.413.35-.7.287a4.187,4.187,0,0,1-1.41-1.043,4.157,4.157,0,0,1-1.043-1.41c-.061-.291.107-.451.287-.7.217-.3.223-.457.017-.883a6.666,6.666,0,0,0-.951-1.421c-.31-.31-.379-.242-.55-.181a3.131,3.131,0,0,0-.5.268,1.52,1.52,0,0,0-.6.639c-.12.259-.259.742.449,2A11.173,11.173,0,0,0,7,10.083H7l0,0,0,0h0a11.217,11.217,0,0,0,2.62,1.965c1.26.708,1.743.569,2,.449a1.494,1.494,0,0,0,.639-.6,3.131,3.131,0,0,0,.268-.5C12.6,11.222,12.665,11.152,12.353,10.842Z" transform="translate(-4.49 -4.502)" fill="#fff"/>
</svg>
