<svg xmlns="http://www.w3.org/2000/svg" width="22.442" height="11.803" viewBox="0 0 22.442 11.803">
  <path id="php" d="M11.221,88.289c6.01,0,10.632,2.532,10.632,5.312s-4.625,5.312-10.632,5.312S.589,96.382.589,93.6s4.625-5.312,10.632-5.312m0-.589C5.025,87.7,0,90.34,0,93.6s5.025,5.9,11.221,5.9,11.221-2.64,11.221-5.9S17.417,87.7,11.221,87.7Zm-3.57,5.428C7.374,94.548,6.4,94.4,5.193,94.4l.48-2.476c1.333,0,2.237-.144,1.978,1.2Zm-4.236,3.78H4.7l.305-1.571c1.441,0,2.335.105,3.163-.67a2.407,2.407,0,0,0,.5-3.089,2.052,2.052,0,0,0-1.631-.586H4.562Zm6.512-7.49h1.28L10.9,90.989c1.1,0,2.129-.081,2.623.375.519.477.27,1.087-.291,3.966h-1.3c.54-2.784.642-3.016.445-3.226s-.621-.161-1.662-.161L10.06,95.33H8.781l1.147-5.912Zm7.781,3.71c-.281,1.441-1.287,1.273-2.458,1.273l.48-2.476C17.07,91.925,17.968,91.782,17.708,93.128Zm-4.236,3.78h1.29l.305-1.571c1.515,0,2.353.088,3.163-.67a2.407,2.407,0,0,0,.5-3.089,2.052,2.052,0,0,0-1.631-.586H14.622Z" transform="translate(0 -87.7)"/>
</svg>
