<svg xmlns="http://www.w3.org/2000/svg" width="13.802" height="13.827" viewBox="0 0 13.802 13.827">
  <path id="repeat" d="M13.371,5.6a.433.433,0,0,0-.431.431A3.886,3.886,0,0,1,9.058,9.915H5.176V8.19A.432.432,0,0,0,4.927,7.8a.438.438,0,0,0-.183-.04.428.428,0,0,0-.276.1L1.88,10.015a.431.431,0,0,0,0,.662l2.588,2.157a.431.431,0,0,0,.708-.331V10.778H9.058A4.75,4.75,0,0,0,13.8,6.033.433.433,0,0,0,13.371,5.6ZM4.313,11.581,2.831,10.346,4.313,9.112Zm.431-9.43H8.6l.024,1.725a.432.432,0,0,0,.249.391.438.438,0,0,0,.183.04.428.428,0,0,0,.276-.1l2.588-2.157a.448.448,0,0,0,.155-.355.4.4,0,0,0-.155-.331L9.334-.792a.433.433,0,0,0-.459-.06.5.5,0,0,0-.249.415L8.6,1.289H4.745A4.735,4.735,0,0,0,0,6.033a.431.431,0,1,0,.863,0A3.886,3.886,0,0,1,4.745,2.151ZM9.489.484,10.972,1.72,9.489,2.955Z" transform="translate(0 0.892)"/>
</svg>
