<svg xmlns="http://www.w3.org/2000/svg" width="18.512" height="18.544" viewBox="0 0 18.512 18.544">
  <path id="repeat-light" d="M17.933,7.817a.58.58,0,0,0-.578.578A5.212,5.212,0,0,1,12.148,13.6H6.942V11.288a.58.58,0,0,0-.333-.524.587.587,0,0,0-.245-.054.575.575,0,0,0-.371.134L2.522,13.737a.578.578,0,0,0,0,.888l3.471,2.892a.578.578,0,0,0,.949-.444V14.759h5.206A6.371,6.371,0,0,0,18.512,8.4.58.58,0,0,0,17.933,7.817ZM5.785,15.837,3.8,14.181l1.989-1.656ZM6.363,3.189h5.174L11.57,5.5a.58.58,0,0,0,.333.524.587.587,0,0,0,.245.054.575.575,0,0,0,.371-.134L15.99,3.055a.6.6,0,0,0,.208-.477.534.534,0,0,0-.208-.444L12.519-.758a.58.58,0,0,0-.616-.08.668.668,0,0,0-.333.556l-.033,2.314H6.363A6.351,6.351,0,0,0,0,8.4a.578.578,0,1,0,1.157,0A5.212,5.212,0,0,1,6.363,3.189ZM12.727.953l1.989,1.658L12.727,4.267Z" transform="translate(0 0.892)"/>
</svg>
