<svg xmlns="http://www.w3.org/2000/svg" width="9.682" height="9.682" viewBox="0 0 9.682 9.682">
  <path id="Icon_ionic-md-settings" data-name="Icon ionic-md-settings" d="M11.892,8.7a3.027,3.027,0,0,0,.025-.484c0-.169-.025-.315-.025-.484l1.04-.8a.222.222,0,0,0,.05-.315l-.99-1.67a.241.241,0,0,0-.3-.1l-1.238.484a3.6,3.6,0,0,0-.842-.484L9.441,3.569a.265.265,0,0,0-.248-.194H7.213a.265.265,0,0,0-.248.194l-.2,1.283a4.192,4.192,0,0,0-.842.484L4.688,4.851a.232.232,0,0,0-.3.1L3.4,6.619a.292.292,0,0,0,.05.315l1.065.8c0,.169-.025.315-.025.484s.025.315.025.484l-1.04.8a.222.222,0,0,0-.05.315l.99,1.67a.241.241,0,0,0,.3.1L5.951,11.1a3.6,3.6,0,0,0,.842.484l.2,1.283a.24.24,0,0,0,.248.194H9.218a.265.265,0,0,0,.248-.194l.2-1.283a4.19,4.19,0,0,0,.842-.484l1.238.484a.232.232,0,0,0,.3-.1l.99-1.67a.292.292,0,0,0-.05-.315ZM8.2,9.91A1.695,1.695,0,1,1,9.936,8.216,1.7,1.7,0,0,1,8.2,9.91Z" transform="translate(-3.375 -3.375)" fill="#fff"/>
</svg>
