<svg xmlns="http://www.w3.org/2000/svg" width="13.706" height="13.706" viewBox="0 0 13.706 13.706">
  <g id="sum-x-cog" transform="translate(-1 -1)">
    <path id="Path_18" data-name="Path 18" d="M16.965,15.233A1.733,1.733,0,1,1,15.233,13.5,1.733,1.733,0,0,1,16.965,15.233Z" transform="translate(-7.38 -7.38)" fill="none" stroke="#18364d" stroke-linecap="round" stroke-linejoin="round" stroke-width="1"/>
    <path id="Path_19" data-name="Path 19" d="M12.126,9.585a.953.953,0,0,0,.191,1.051l.035.035a1.156,1.156,0,1,1-1.634,1.634l-.035-.035a.961.961,0,0,0-1.629.681v.1a1.155,1.155,0,1,1-2.31,0V13a1,1,0,0,0-1.675-.681l-.035.035A1.156,1.156,0,1,1,3.4,10.717l.035-.035a.961.961,0,0,0-.681-1.629h-.1a1.155,1.155,0,1,1,0-2.31h.052a1,1,0,0,0,.681-1.675l-.035-.035A1.156,1.156,0,1,1,4.988,3.4l.035.035a.953.953,0,0,0,1.051.191H6.12A.953.953,0,0,0,6.7,2.753v-.1a1.155,1.155,0,0,1,2.31,0v.052a.961.961,0,0,0,1.629.681l.035-.035a1.156,1.156,0,1,1,1.634,1.634l-.035.035a.953.953,0,0,0-.191,1.051V6.12a.953.953,0,0,0,.872.578h.1a1.155,1.155,0,1,1,0,2.31H13a.953.953,0,0,0-.872.578Z" fill="none" stroke="#18364d" stroke-linecap="round" stroke-linejoin="round" stroke-width="1"/>
  </g>
</svg>
