<svg xmlns="http://www.w3.org/2000/svg" xmlns:xlink="http://www.w3.org/1999/xlink" width="423.008" height="334" viewBox="0 0 423.008 334">
  <defs>
    <filter id="Union_2" x="0" y="0" width="423.008" height="334" filterUnits="userSpaceOnUse">
      <feOffset input="SourceAlpha"/>
      <feGaussianBlur stdDeviation="7.5" result="blur"/>
      <feFlood flood-opacity="0.153"/>
      <feComposite operator="in" in2="blur"/>
      <feComposite in="SourceGraphic"/>
    </filter>
  </defs>
  <g transform="matrix(1, 0, 0, 1, 0, 0)" filter="url(#Union_2)">
    <path id="Union_2-2" data-name="Union 2" d="M-2100,380a14,14,0,0,1-14-14V31a14,14,0,0,1,14-14h216.158l8.111-14.01a2,2,0,0,1,3.461,0l8.111,14.01H-1839a14,14,0,0,1,14,14V366a14,14,0,0,1-14,14Z" transform="translate(20.51 -1802.5) rotate(-90)" fill="#fff"/>
  </g>
</svg>
