<svg xmlns="http://www.w3.org/2000/svg" width="16.831" height="14.026" viewBox="0 0 16.831 14.026">
  <path id="volume" d="M6.283,2.733l-2.6,2.6H.7a.7.7,0,0,0-.7.7v4.208a.7.7,0,0,0,.7.7H3.684l2.6,2.6a.7.7,0,0,0,1.2-.5V3.229A.7.7,0,0,0,6.283,2.733ZM13.1,1.241a.707.707,0,1,0-.776,1.182,6.827,6.827,0,0,1,0,11.43.707.707,0,1,0,.776,1.182,8.242,8.242,0,0,0,0-13.794Zm.925,6.9A5.4,5.4,0,0,0,11.52,3.572a.7.7,0,0,0-.968.218.71.71,0,0,0,.217.975,3.994,3.994,0,0,1,0,6.745.71.71,0,0,0-.217.975.7.7,0,0,0,.968.218A5.4,5.4,0,0,0,14.026,8.138ZM9.883,5.892a.7.7,0,0,0-.677,1.229,1.152,1.152,0,0,1,0,2.034.7.7,0,0,0,.677,1.229,2.555,2.555,0,0,0,0-4.492Z" transform="translate(0 -1.125)"/>
</svg>
