<svg xmlns="http://www.w3.org/2000/svg" width="12.457" height="12.457" viewBox="0 0 12.457 12.457">
  <g id="w" transform="translate(-4.5 -4.5)">
    <path id="Path_20" data-name="Path 20" d="M16,19.076l-1.064,3.1h0l-.824,2.371.172.045h.01a6.245,6.245,0,0,0,1.606.211,5.092,5.092,0,0,0,.808-.058,5.978,5.978,0,0,0,1.054-.23h0c.084-.026.169-.055.253-.084-.091-.195-.285-.626-.3-.646Z" transform="translate(-5.177 -7.851)"/>
    <path id="Path_21" data-name="Path 21" d="M5.045,12.691A6.34,6.34,0,0,0,4.5,15.141c0,.2.01.409.029.61A6.236,6.236,0,0,0,8.3,20.873c.084.036.172.071.26.1L5.538,12.695C5.279,12.685,5.23,12.7,5.045,12.691Z" transform="translate(0 -4.412)"/>
    <path id="Path_22" data-name="Path 22" d="M17.326,8.114a6.1,6.1,0,0,0-.49-.863c-.052-.078-.11-.156-.165-.234a6.261,6.261,0,0,0-2.754-2.1A6.137,6.137,0,0,0,11.672,4.5,6.212,6.212,0,0,0,6.825,6.826a6.36,6.36,0,0,0-.568.83c.461,0,1.032,0,1.1,0,.587,0,1.492-.071,1.492-.071a.231.231,0,0,1,.036.461s-.3.036-.642.052l2.04,6.066,1.226-3.675L10.637,8.1c-.3-.016-.587-.052-.587-.052a.231.231,0,0,1,.032-.461s.925.071,1.476.071c.587,0,1.492-.071,1.492-.071a.231.231,0,0,1,.036.461s-.3.036-.639.052l2.021,6.021.561-1.868a5.224,5.224,0,0,0,.425-1.807,2.942,2.942,0,0,0-.464-1.544,2.648,2.648,0,0,1-.548-1.311.97.97,0,0,1,.941-1h.071c.85-.023,1.129.821,1.165,1.395v.019c.013.234,0,.405,0,.61a5.332,5.332,0,0,1-.425,2l-1.265,3.659-.723,2.131c.058-.026.114-.052.172-.081a6.225,6.225,0,0,0,3.461-4.759,5.582,5.582,0,0,0,.062-.843A6.2,6.2,0,0,0,17.326,8.114Z" transform="translate(-0.947)"/>
  </g>
</svg>
